HIERARCHY
ROOT Hip
{
	OFFSET	0.0000	0.0000	0.0000
	CHANNELS 6 Xposition Yposition Zposition Xrotation Yrotation Zrotation
	JOINT LowerSpine
	{
		OFFSET	0.0000	8.3453	-5.1292
		CHANNELS 3 Xrotation Yrotation Zrotation
		JOINT MiddleSpine
		{
			OFFSET	10.8569	0.0000	0.0000
			CHANNELS 3 Xrotation Yrotation Zrotation
			JOINT Chest
			{
				OFFSET	15.2984	0.0000	0.0000
				CHANNELS 3 Xrotation Yrotation Zrotation
				JOINT Neck
				{
					OFFSET	25.6618	-0.5986	0.0000
					CHANNELS 3 Xrotation Yrotation Zrotation
					JOINT Head
					{
						OFFSET	8.8829	0.0000	0.0000
						CHANNELS 3 Xrotation Yrotation Zrotation
						End Site
						{
							OFFSET	19.7399	0.0000	0.0000
						}
					}
				}
				JOINT RClavicle
				{
					OFFSET	23.6878	0.0000	3.1584
					CHANNELS 3 Xrotation Yrotation Zrotation
					JOINT RShoulder
					{
						OFFSET	-15.5945	-3.9480	0.9870
						CHANNELS 3 Xrotation Yrotation Zrotation
						JOINT RForearm
						{
							OFFSET	-31.3370	0.0000	0.1974
							CHANNELS 3 Xrotation Yrotation Zrotation
							JOINT RHand
							{
								OFFSET	-26.4021	0.0000	0.0000
								CHANNELS 3 Xrotation Yrotation Zrotation
								End Site
								{
									OFFSET	-15.7919	-0.9870	0.0000
								}
							}
						}
					}
				}
				JOINT LClavicle
				{
					OFFSET	23.6878	0.0000	-3.1584
					CHANNELS 3 Xrotation Yrotation Zrotation
					JOINT LShoulder
					{
						OFFSET	-15.5945	-3.9480	-0.9870
						CHANNELS 3 Xrotation Yrotation Zrotation
						JOINT LForearm
						{
							OFFSET	-31.3370	0.0000	-0.1974
							CHANNELS 3 Xrotation Yrotation Zrotation
							JOINT LHand
							{
								OFFSET	-26.4021	0.0000	0.0000
								CHANNELS 3 Xrotation Yrotation Zrotation
								End Site
								{
									OFFSET	-15.7919	-0.9870	0.0000
								}
							}
						}
					}
				}
			}
		}
	}
	JOINT RThigh
	{
		OFFSET	-8.8829	0.4481	0.0000
		CHANNELS 3 Xrotation Yrotation Zrotation
		JOINT RShin
		{
			OFFSET	43.1316	0.0000	-0.4935
			CHANNELS 3 Xrotation Yrotation Zrotation
			JOINT RFoot
			{
				OFFSET	0.0000	-44.7256	-0.4047
				CHANNELS 3 Xrotation Yrotation Zrotation
				JOINT RToe
				{
					OFFSET	0.0000	-3.9332	12.1953
					CHANNELS 3 Xrotation Yrotation Zrotation
					End Site
					{
						OFFSET	6.7725	0.0000	0.0000
					}
				}
			}
		}
	}
	JOINT LThigh
	{
		OFFSET	8.8829	0.4481	0.0000
		CHANNELS 3 Xrotation Yrotation Zrotation
		JOINT LShin
		{
			OFFSET	43.1316	0.0000	0.4935
			CHANNELS 3 Xrotation Yrotation Zrotation
			JOINT LFoot
			{
				OFFSET	0.0000	-44.7256	0.4047
				CHANNELS 3 Xrotation Yrotation Zrotation
				JOINT LToe
				{
					OFFSET	0.0000	-3.9332	-12.1953
					CHANNELS 3 Xrotation Yrotation Zrotation
					End Site
					{
						OFFSET	6.7725	0.0000	0.0000
					}
				}
			}
		}
	}
}
MOTION
Frames:	13
Frame Time: 0.0169491000
	0.0000	93.1363	0.0000	0.000000	0.000000	0.000000	-89.999990	-90.000000	0.000000	0.000000	0.000000	0.000000	0.000000	0.000000	0.000000	0.000000	0.000000	0.000000	0.000000	0.000000	0.000000	89.999990	0.000003	-89.999990	0.129889	-2.857029	4.156837	0.255388	4.965908	-5.884634	0.000000	0.000000	0.000000	-89.999990	-0.000003	-89.999990	-0.129889	2.857029	4.156894	-0.255388	-4.965908	-5.884634	0.000000	0.000000	0.000000	-89.999990	90.000000	0.000000	89.999990	-0.000003	89.999990	0.000000	0.000000	0.000000	180.000000	90.000000	0.000000	-89.999990	90.000000	0.000000	-90.000000	-0.000003	89.999990	0.000000	0.000000	0.000000	180.000000	-90.000000	0.000000
	4.8198	93.5707	-3.9347	0.338717	2.183141	0.686186	-89.999990	-90.000000	0.000000	-0.100090	-0.147935	0.027467	-0.277066	-0.459688	0.074466	0.000000	0.000000	0.000000	0.000000	0.000000	0.000000	89.998270	-0.040119	-89.460660	-11.268900	3.110981	5.527718	0.534443	7.650190	-5.915303	0.000000	0.000000	0.000000	-90.002080	-0.039807	-90.535390	3.471032	-1.843903	3.508541	-0.303156	-5.427290	-5.888960	0.000000	0.000000	0.000000	126.428700	88.978100	141.689100	89.939330	6.761766	89.996660	-3.416944	-0.134830	-0.044586	179.707700	90.000000	0.000000	62.444140	88.837100	-149.800300	-89.986790	-1.470857	89.998660	1.888461	-0.223999	0.088986	180.919100	-90.000000	0.000000
	4.5087	93.3133	-3.6978	0.416973	1.931765	0.766339	-89.999990	-90.000000	0.000000	-0.059832	-0.123411	0.021139	-0.205134	-0.419679	0.052201	0.000000	0.000000	0.000000	0.000000	0.000000	0.000000	89.998890	-0.024583	-89.669400	-9.910443	1.607005	5.499623	0.962485	11.698770	-5.987281	0.000000	0.000000	0.000000	-90.003810	-0.068407	-90.920250	4.295269	-1.667631	3.978272	-0.483454	-7.161894	-5.908731	0.000000	0.000000	0.000000	150.421200	88.704790	117.716200	89.929440	7.860638	89.996800	-4.758023	-0.133093	-0.047731	178.923600	90.000000	0.000000	59.069910	88.766040	-147.630700	-89.962990	-4.126559	89.997100	3.201295	0.142674	-0.058285	182.115800	-90.000000	0.000000
	4.1320	93.1609	-3.4610	0.527907	1.864653	0.736036	-89.999990	-90.000000	0.000000	-0.043504	-0.115833	0.008956	-0.138599	-0.384499	0.026361	0.000000	0.000000	0.000000	0.000000	0.000000	0.000000	89.999390	-0.012997	-89.825160	-9.299995	-0.039614	5.962870	1.393555	15.659160	-6.089283	0.000000	0.000000	0.000000	-90.005450	-0.092970	-91.250890	4.923289	-1.615214	4.271298	-0.672029	-8.961984	-5.935181	0.000000	0.000000	0.000000	168.468000	88.633640	99.801060	89.923000	8.573384	89.996990	-5.749046	-0.211246	-0.085004	178.544500	90.000000	0.000000	46.642950	88.770110	-136.329300	-89.941250	-6.549393	89.996650	4.563932	0.257305	-0.106914	182.421800	-90.000000	0.000000
	3.8636	93.0953	-3.3150	0.552073	1.986766	0.649216	-89.999990	-90.000000	0.000000	-0.020708	-0.105686	-0.005738	-0.076255	-0.352807	-0.001351	0.000000	0.000000	0.000000	0.000000	0.000000	0.000000	89.999660	-0.007233	-89.902690	-9.203585	-1.185204	6.446632	1.644895	17.901530	-6.161859	0.000000	0.000000	0.000000	-90.006830	-0.112182	-91.509570	5.215405	-1.880619	4.447687	-0.784633	-10.028620	-5.953758	0.000000	0.000000	0.000000	-177.303500	88.663100	85.720580	89.919840	8.923218	89.997100	-6.332313	-0.408712	-0.174665	178.635700	90.000000	0.000000	35.240870	88.819370	-125.610500	-89.927340	-8.094151	89.996850	5.723615	0.129854	-0.035297	181.827700	-90.000000	0.000000
	3.7874	93.0700	-3.2566	0.468861	2.044557	0.648942	-89.999990	-90.000000	0.000000	-0.013165	-0.102228	-0.009842	-0.013139	-0.318881	-0.026438	0.000000	0.000000	0.000000	0.000000	0.000000	0.000000	89.999660	-0.007141	-89.903910	-9.274288	-1.542966	6.570320	1.711496	18.486590	-6.182653	0.000000	0.000000	0.000000	-90.007940	-0.126857	-91.707280	5.249715	-2.203441	4.687595	-0.808235	-10.251330	-5.957912	0.000000	0.000000	0.000000	-173.241400	88.694660	81.771800	89.918270	9.096914	89.997180	-6.648320	-0.619762	-0.272962	178.874400	90.000000	0.000000	34.103700	88.861170	-124.622000	-89.922360	-8.644339	89.997010	6.222412	0.041707	0.021842	181.477000	-90.000000	0.000000
	3.8055	93.0709	-3.2313	0.396297	1.913104	0.727956	-89.999990	-90.000000	0.000000	0.019030	-0.084973	-0.015864	0.048215	-0.280374	-0.044900	0.000000	0.000000	0.000000	0.000000	0.000000	0.000000	89.999410	-0.012626	-89.830180	-9.451950	-1.506384	6.486660	1.739210	18.728880	-6.191498	0.000000	0.000000	0.000000	-90.008700	-0.136463	-91.836720	5.185434	-2.244517	4.944545	-0.804071	-10.212060	-5.957172	0.000000	0.000000	0.000000	-176.079800	88.732460	84.652140	89.917440	9.188043	89.997210	-6.798428	-0.747530	-0.331576	179.082900	90.000000	0.000000	38.930870	88.838090	-129.320400	-89.922990	-8.575143	89.996990	6.061927	0.108860	-0.020587	181.859300	-90.000000	0.000000
	3.8147	93.0740	-3.2036	0.377301	1.740333	0.798167	-89.999990	-90.000000	0.000000	0.040427	-0.067563	-0.017973	0.100865	-0.237998	-0.057722	0.000000	0.000000	0.000000	0.000000	0.000000	0.000000	89.998970	-0.022606	-89.696010	-9.742718	-1.494660	6.371216	1.781412	19.096490	-6.205177	0.000000	0.000000	0.000000	-90.009040	-0.140778	-91.894890	5.134260	-2.036800	5.080389	-0.822972	-10.390220	-5.960553	0.000000	0.000000	0.000000	-179.439300	88.772660	87.989980	89.916620	9.279574	89.997260	-6.953622	-0.699272	-0.309847	179.367100	90.000000	0.000000	42.043380	88.785420	-132.311400	-89.924490	-8.408384	89.996950	5.802917	0.164662	-0.061785	182.354600	-90.000000	0.000000
	3.8008	93.0706	-3.1700	0.361042	1.704139	0.833870	-89.999990	-90.000000	0.000000	0.047860	-0.058401	-0.019536	0.136626	-0.197117	-0.067919	0.000000	0.000000	0.000000	0.000000	0.000000	0.000000	89.998440	-0.035450	-89.523360	-10.120390	-1.559015	6.250910	1.795664	19.220260	-6.209854	0.000000	0.000000	0.000000	-90.008770	-0.137385	-91.849110	5.142981	-1.869354	5.059298	-0.868104	-10.814810	-5.968856	0.000000	0.000000	0.000000	178.569800	88.814520	89.970450	89.915600	9.391812	89.997310	-7.116495	-0.568336	-0.248342	179.601400	90.000000	0.000000	43.305490	88.759990	-133.546200	-89.924580	-8.397923	89.996950	5.674403	0.097702	-0.034957	182.672100	-90.000000	0.000000
	3.7721	93.0777	-3.1446	0.343517	1.787235	0.848920	-89.999990	-90.000000	0.000000	0.053436	-0.049134	-0.021678	0.149955	-0.167674	-0.076482	0.000000	0.000000	0.000000	0.000000	0.000000	0.000000	89.997920	-0.049209	-89.338400	-10.488750	-1.766395	6.142073	1.818921	19.421840	-6.217548	0.000000	0.000000	0.000000	-90.008220	-0.130464	-91.755870	5.216973	-2.045354	4.934401	-0.882519	-10.950170	-5.971578	0.000000	0.000000	0.000000	178.608200	88.837360	89.960040	89.915080	9.447649	89.997340	-7.136118	-0.600540	-0.263242	179.582400	90.000000	0.000000	43.943050	88.760730	-134.256900	-89.923310	-8.538845	89.996990	5.537120	0.085163	-0.027216	182.976800	-90.000000	0.000000
	3.7384	93.0992	-3.1212	0.337172	1.908910	0.867103	-89.999990	-90.000000	0.000000	0.034721	-0.030913	-0.032955	0.107696	-0.131079	-0.099958	0.000000	0.000000	0.000000	0.000000	0.000000	0.000000	89.997500	-0.061447	-89.173910	-10.724330	-2.345234	6.056667	1.950682	20.554310	-6.262590	0.000000	0.000000	0.000000	-90.007260	-0.118063	-91.588810	5.323853	-2.614398	4.801044	-0.828638	-10.443590	-5.961577	0.000000	0.000000	0.000000	179.356900	88.822260	89.331620	89.916610	9.279423	89.997260	-6.983447	-0.835519	-0.368249	179.388000	90.000000	0.000000	44.660580	88.773480	-135.077900	-89.921930	-8.692431	89.997040	5.378574	0.112998	-0.038590	183.203800	-90.000000	0.000000
	3.7117	93.1178	-3.1019	0.351779	2.085671	0.884178	-89.999990	-90.000000	0.000000	0.023008	-0.033957	-0.034729	0.070019	-0.137195	-0.106213	0.000000	0.000000	0.000000	0.000000	0.000000	0.000000	89.997250	-0.069278	-89.068690	-10.950910	-3.309336	6.048150	2.197758	22.632660	-6.353534	0.000000	0.000000	0.000000	-90.006030	-0.101314	-91.363270	5.393232	-2.841263	4.688275	-0.859888	-10.737610	-5.967321	0.000000	0.000000	0.000000	179.829800	88.778060	89.017140	89.919420	8.968514	89.997130	-6.760029	-1.145560	-0.503323	179.120600	90.000000	0.000000	45.960450	88.818650	-136.497200	-89.920700	-8.828121	89.997090	5.337506	-0.074901	0.039065	183.206100	-90.000000	0.000000
	3.6959	93.1126	-3.1084	0.412796	2.334282	0.891358	-89.999990	-90.000000	0.000000	0.004672	-0.042623	-0.035822	0.025654	-0.158608	-0.109657	0.000000	0.000000	0.000000	0.000000	0.000000	0.000000	89.997090	-0.074154	-89.003200	-11.405230	-4.543950	6.126408	2.505046	25.131630	-6.477972	0.000000	0.000000	0.000000	-90.004700	-0.082136	-91.105090	5.369020	-2.046002	4.568120	-1.126324	-13.219670	-6.022632	0.000000	0.000000	0.000000	-179.745400	88.737530	88.604190	89.920670	8.831114	89.997080	-6.643656	-1.409878	-0.619840	178.825600	90.000000	0.000000	48.108760	88.885440	-138.866300	-89.918780	-9.040409	89.997170	5.400284	-0.403674	0.176292	183.146300	-90.000000	0.000000
